<svg id="Layer_1" xmlns="http://www.w3.org/2000/svg" viewBox="0 0 800 500"><style>.st0{fill:#B3E3FF;stroke:#404040;stroke-width:4;stroke-linecap:round;stroke-linejoin:round;stroke-miterlimit:10;} .st1{fill:#FFFFFF;stroke:#404040;stroke-width:4;stroke-linecap:round;stroke-linejoin:round;stroke-miterlimit:10;} .st2{fill:#FC8363;stroke:#404040;stroke-width:4;stroke-linecap:round;stroke-linejoin:round;} .st3{fill:none;stroke:#404040;stroke-width:4;stroke-linecap:round;stroke-linejoin:round;} .st4{fill:#FFFFFF;stroke:#404040;stroke-width:4;stroke-miterlimit:10;}</style><path class="st0" d="M564.2,160.7v180.7h-111c-20.5,0-30.5,3.6-30.5,12.2c0,3.3-3.4,5.7-6.7,5.7h-31.8c-3.3,0-6.7-2.3-6.7-5.7	c0-9-10-12.2-30.5-12.2h-111V160.7H564.2z"/><path class="st1" d="M400,348.9c0-12.3,0-22.3-44.6-22.3H251.2V140.7h104.2c24.7,0,44.6,10,44.6,22.3v126.1V348.9z"/><path class="st1" d="M400,348.9c0-12.3,0-22.3,44.6-22.3h104.2V140.7H444.6c-24.7,0-44.6,10-44.6,22.3v144.8V348.9z"/><path class="st2" d="M374.9,230.2l-44.7-44.7c-2.6-2.6-6.7-2.6-9.3,0c0,0,0,0,0,0l-9.3,9.3l11.8,11.8c4.1-1.4,8.6,0.9,9.9,5	c0.5,1.6,0.5,3.4,0,5l11.3,11.4c4.1-1.4,8.6,0.8,10,4.9c1.4,4.1-0.8,8.6-4.9,10c-4.1,1.4-8.6-0.8-10-4.9c-0.6-1.8-0.6-3.8,0.2-5.6	l-10.6-10.6v27.9c3.9,1.9,5.5,6.6,3.5,10.5s-6.6,5.5-10.5,3.5s-5.5-6.6-3.5-10.5c0.9-1.7,2.3-3.1,4.1-3.8v-28.1	c-1-0.4-1.8-1-2.6-1.7c-2.2-2.3-2.9-5.7-1.7-8.6L307,199.4L276.3,230c-2.6,2.6-2.6,6.7,0,9.3c0,0,0,0,0,0l44.7,44.7	c2.6,2.6,6.7,2.6,9.3,0c0,0,0,0,0,0l44.5-44.5C377.4,237,377.4,232.8,374.9,230.2C374.9,230.3,374.9,230.2,374.9,230.2z"/><path class="st3" d="M385 348.9L415 348.9"/><path class="st4" d="M423.7,249.3v14.5h86.9c8,0,14.5-6.4,14.5-14.5c0-8-6.4-14.5-14.5-14.5c0-8-6.4-14.5-14.5-14.5	c0-12.1-9.7-21.7-21.7-21.7s-21.7,9.7-21.7,21.7C436.6,220.4,423.7,233.4,423.7,249.3z"/></svg>