<svg xmlns="http://www.w3.org/2000/svg" viewBox="0 0 800 315"><style>.st0{display:none;} .st1{display:inline;} .st2{fill:#FFFFFF;} .st3{fill:none;stroke:#9882CE;stroke-width:4;stroke-miterlimit:10;} .st4{fill:#FFFFFF;stroke:#404040;stroke-width:4;stroke-linecap:round;stroke-linejoin:round;stroke-miterlimit:10;} .st5{fill:#FFFFFF;stroke:#404040;stroke-width:4;stroke-miterlimit:10;} .st6{fill:#B3E3FF;stroke:#404040;stroke-width:4;stroke-miterlimit:10;} .st7{fill:#B18BE8;stroke:#404040;stroke-width:4;stroke-miterlimit:10;} .st8{fill:#FFFFFF;stroke:#404040;stroke-width:6;stroke-miterlimit:10;} .st9{fill:#B3E3FF;stroke:#404040;stroke-width:6;stroke-miterlimit:10;} .st10{fill:#404040;} .st11{fill:none;stroke:#404040;stroke-width:4;stroke-linecap:round;stroke-linejoin:round;stroke-miterlimit:10;} .st12{fill:#B18BE8;stroke:#404040;stroke-width:4;stroke-linecap:round;stroke-linejoin:round;stroke-miterlimit:10;} .st13{fill:#444444;} .st14{fill:none;stroke:#404040;stroke-width:4;stroke-miterlimit:10;} .st15{fill:#4ED1A1;stroke:#404040;stroke-width:4;stroke-miterlimit:10;} .st16{fill:none;stroke:#CCCCCC;stroke-width:7;stroke-linecap:round;stroke-linejoin:round;stroke-miterlimit:10;} .st17{fill:#FFFFFF;stroke:#CCCCCC;stroke-width:7;stroke-linecap:round;stroke-linejoin:round;stroke-miterlimit:10;} .st18{fill:none;stroke:#404040;stroke-width:7;stroke-miterlimit:10;} .st19{fill:#B3E3FF;stroke:#404040;stroke-width:7;stroke-miterlimit:10;} .st20{fill:none;stroke:#CCCCCC;stroke-width:8;stroke-linecap:round;stroke-miterlimit:10;} .st21{fill:none;stroke:#404040;stroke-width:8;stroke-linecap:round;stroke-miterlimit:10;} .st22{fill:#FFFFFF;stroke:#404040;stroke-width:4;stroke-linejoin:round;stroke-miterlimit:10;} .st23{fill:#B3E3FF;stroke:#404040;stroke-width:4;stroke-linejoin:round;stroke-miterlimit:10;} .st24{fill:none;stroke:#CCCCCC;stroke-linecap:round;stroke-linejoin:round;stroke-miterlimit:10;} .st25{fill:#999999;} .st26{fill:#4ED1A1;stroke:#404040;stroke-width:4;stroke-linecap:round;stroke-linejoin:round;stroke-miterlimit:10;} .st27{fill:#4CD3D6;stroke:#404040;stroke-width:4;stroke-linejoin:round;stroke-miterlimit:10;} .st28{fill:none;stroke:#59AFE1;stroke-width:4;stroke-miterlimit:10;} .st29{fill:#59AFE1;stroke:#404040;stroke-width:4;stroke-linejoin:round;stroke-miterlimit:10;} .st30{fill:none;stroke:#404040;stroke-width:8;stroke-linecap:round;stroke-linejoin:round;stroke-miterlimit:10;stroke-dasharray:0,30;} .st31{fill:#FFFFFF;stroke:#59AFE1;stroke-width:4;stroke-miterlimit:10;} .st32{fill:#FC8363;stroke:#404040;stroke-width:4;stroke-linecap:round;stroke-linejoin:round;stroke-miterlimit:10;} .st33{fill:#CCCCCC;stroke:#404040;stroke-width:4;stroke-miterlimit:10;} .st34{fill:#FFFFFF;stroke:#6693ED;stroke-width:4;stroke-miterlimit:10;} .st35{fill:none;stroke:#A97CDD;stroke-width:4;stroke-linecap:round;stroke-linejoin:round;stroke-miterlimit:10;} .st36{fill:none;stroke:#B3E3FF;stroke-width:4;stroke-linecap:round;stroke-linejoin:round;stroke-miterlimit:10;} .st37{fill:none;stroke:#4ED1A1;stroke-width:4;stroke-linecap:round;stroke-miterlimit:10;} .st38{fill:none;stroke:#4ED1A1;stroke-width:4;stroke-linecap:round;stroke-linejoin:round;stroke-miterlimit:10;} .st39{fill:#E24B88;stroke:#404040;stroke-width:4;stroke-linecap:round;stroke-linejoin:round;stroke-miterlimit:10;} .st40{fill:none;stroke:#DEEFF8;stroke-width:4;stroke-miterlimit:10;} .st41{fill:none;stroke:#CCCCCC;stroke-width:4;stroke-linecap:round;stroke-linejoin:round;} .st42{fill:none;stroke:#CCCCCC;stroke-width:4;stroke-linecap:round;stroke-linejoin:round;stroke-dasharray:0,14.3051;} .st43{fill:none;stroke:#CCCCCC;stroke-width:4;stroke-linecap:round;stroke-linejoin:round;stroke-dasharray:0,14.1689;} .st44{fill:none;stroke:#CCCCCC;stroke-width:4;stroke-linecap:round;stroke-linejoin:round;stroke-dasharray:0,13.9788;} .st45{fill:none;stroke:#CCCCCC;stroke-width:4;stroke-linecap:round;stroke-linejoin:round;stroke-dasharray:0,14.7877;} .st46{fill:none;stroke:#CCCCCC;stroke-width:4;stroke-linecap:round;stroke-linejoin:round;stroke-dasharray:0,14.9632;} .st47{fill:#B3E3FF;stroke:#404040;stroke-width:4;stroke-linecap:round;stroke-linejoin:round;stroke-miterlimit:10;} .st48{fill:none;stroke:#CCCCCC;stroke-width:4;stroke-linecap:round;stroke-linejoin:round;stroke-dasharray:0,12.543;} .st49{fill:none;stroke:#CCCCCC;stroke-width:4;stroke-linecap:round;stroke-linejoin:round;stroke-dasharray:0,13.6844;} .st50{fill:none;stroke:#CCCCCC;stroke-width:4;stroke-linecap:round;stroke-linejoin:round;stroke-dasharray:0,13.7717;} .st51{fill:none;stroke:#CCCCCC;stroke-width:4;stroke-linecap:round;stroke-linejoin:round;stroke-dasharray:0,13.6492;} .st52{fill:none;stroke:#CCCCCC;stroke-width:4;stroke-linecap:round;stroke-linejoin:round;stroke-dasharray:0,13.907;} .st53{fill:#4CD3D6;stroke:#404040;stroke-width:4;stroke-linecap:round;stroke-linejoin:round;stroke-miterlimit:10;} .st54{fill:none;stroke:#CCCCCC;stroke-width:4;stroke-linecap:round;stroke-linejoin:round;stroke-dasharray:0,14.9858;} .st55{fill:none;stroke:#CCCCCC;stroke-width:4;stroke-linecap:round;stroke-linejoin:round;stroke-dasharray:0,14.0118;} .st56{fill:none;stroke:#CCCCCC;stroke-width:4;stroke-linecap:round;stroke-linejoin:round;stroke-dasharray:0,14.1243;} .st57{fill:none;} .st58{fill:#FFFFFF;stroke:#404040;stroke-width:7;stroke-linecap:round;stroke-linejoin:round;stroke-miterlimit:10;} .st59{fill:#59AFE1;stroke:#404040;stroke-width:7;stroke-linejoin:round;stroke-miterlimit:10;} .st60{fill:#E24B88;stroke:#404040;stroke-width:7;stroke-linecap:round;stroke-linejoin:round;stroke-miterlimit:10;} .st61{fill:none;stroke:#404040;stroke-width:7;stroke-linecap:round;stroke-linejoin:round;stroke-miterlimit:10;} .st62{fill:none;stroke:#CCCCCC;stroke-width:4;stroke-linecap:round;stroke-linejoin:round;stroke-miterlimit:10;} .st63{fill:#FFFFFF;stroke:#CCCCCC;stroke-width:4;stroke-linecap:round;stroke-linejoin:round;stroke-miterlimit:10;} .st64{fill:#F5F5F5;} .st65{fill:#3873AE;} .st66{fill:#75706C;} .st67{fill:none;stroke:#B3E3FF;stroke-width:4;stroke-miterlimit:10;} .st68{fill:#6F6F6F;} .st69{fill:none;stroke:#6F6F6F;stroke-width:2;stroke-miterlimit:10;} .st70{fill:none;stroke:#6F6F6F;stroke-width:3;stroke-miterlimit:10;}</style><g id="Making_x5F_a_x5F_pull_x5F_request"><path class="st26" d="M485.3 149h177.2v108.3h-177.2z"/><path class="st6" d="M502.1 165.7h143.8v74.8h-143.8z"/><path class="st11" d="M520.3 203.3h-11.2"/><path class="st26" d="M671.3 306.9h-194.8l8.8-37.9h177.2zm-151-125.6h107.3v44h-107.3z"/><circle class="st4" cx="573.9" cy="203.4" r="8.8"/><circle class="st4" cx="543.1" cy="203.4" r="8.8"/><path class="st11" d="M638.8 203.3h-11.2m-310.9 0h50.4c10.2 0 18.5-8.3 18.5-18.5v-87m-249.8 105.5h-56.8c-10.2 0-18.5-8.3-18.5-18.5v-51.8m422.5 70.3h-50.4c-10.2 0-18.5-8.3-18.5-18.5v-87m251.2 105.5h56.8c10.2 0 18.5-8.3 18.5-18.5v-51.8"/><circle class="st4" cx="604.7" cy="203.4" r="8.8"/><path id="repo1_154_" class="st6" d="M32.5 108.4c0-5.5 12.5-10 28-10s28 4.4 28 10m-56 0v12.4c0 1.3.8 2.6 2.1 3.8 4.2 3.6 14.2 6.2 25.9 6.2s21.7-2.6 25.9-6.2c1.3-1.2 2.1-2.4 2.1-3.8v-12.4"/><path class="st31" d="M88.6 108.4c0 5.5-12.5 10-28 10s-28-4.4-28-10c0-5.5 12.5-10 28-10s28 4.5 28 10z"/><path id="repo1_153_" class="st6" d="M32.5 96c0-5.5 12.5-10 28-10s28 4.4 28 10m-56 0v12.4c0 1.3.8 2.6 2.1 3.8 4.2 3.6 14.2 6.2 25.9 6.2s21.7-2.6 25.9-6.2c1.3-1.2 2.1-2.4 2.1-3.8v-12.4"/><path class="st31" d="M88.6 96c0 5.5-12.5 10-28 10s-28-4.4-28-10c0-5.5 12.5-10 28-10s28 4.5 28 10z"/><path id="repo1_142_" class="st6" d="M32.5 83.6c0-5.5 12.5-10 28-10s28 4.4 28 10m-56 0v12.4c0 1.3.8 2.6 2.1 3.8 4.2 3.6 14.2 6.2 25.9 6.2s21.7-2.6 25.9-6.2c1.3-1.2 2.1-2.4 2.1-3.8v-12.4"/><path class="st5" d="M88.6 83.6c0 5.5-12.5 10-28 10s-28-4.4-28-10c0-5.5 12.5-10 28-10s28 4.5 28 10z"/><path id="repo1_141_" class="st6" d="M711.4 108.4c0-5.5 12.5-10 28-10s28 4.4 28 10m-56 0v12.4c0 1.3.8 2.6 2.1 3.8 4.2 3.6 14.2 6.2 25.9 6.2s21.7-2.6 25.9-6.2c1.3-1.2 2.1-2.4 2.1-3.8v-12.4"/><path class="st31" d="M767.5 108.4c0 5.5-12.5 10-28 10s-28-4.4-28-10c0-5.5 12.5-10 28-10s28 4.5 28 10z"/><path id="repo1_140_" class="st6" d="M711.4 96c0-5.5 12.5-10 28-10s28 4.4 28 10m-56 0v12.4c0 1.3.8 2.6 2.1 3.8 4.2 3.6 14.2 6.2 25.9 6.2s21.7-2.6 25.9-6.2c1.3-1.2 2.1-2.4 2.1-3.8v-12.4"/><path class="st31" d="M767.5 96c0 5.5-12.5 10-28 10s-28-4.4-28-10c0-5.5 12.5-10 28-10s28 4.5 28 10z"/><path id="repo1_139_" class="st6" d="M711.4 83.6c0-5.5 12.5-10 28-10s28 4.4 28 10m-56 0v12.4c0 1.3.8 2.6 2.1 3.8 4.2 3.6 14.2 6.2 25.9 6.2s21.7-2.6 25.9-6.2c1.3-1.2 2.1-2.4 2.1-3.8v-12.4"/><path class="st5" d="M767.5 83.6c0 5.5-12.5 10-28 10s-28-4.4-28-10c0-5.5 12.5-10 28-10s28 4.5 28 10z"/><path class="st12" d="M137.6 149h177.2v108.3h-177.2z"/><path class="st6" d="M154.3 165.7h143.8v74.8h-143.8z"/><path class="st12" d="M323.6 306.9h-194.8l8.8-37.9h177.2zm-119.4-125.8h44v44h-44z"/><circle class="st4" cx="226.2" cy="203.3" r="8.8"/><path class="st11" d="M204.2 203.1h-42.9m129.8 0h-42.9"/><circle class="st5" cx="400" cy="59" r="43.5"/><path class="st11" d="M400 65.3v-22.2m-8.4 5.2l8.4-8.4 8.4 8.4m-17.7 7.2h-9.7c-1.5 0-2.8 1.2-2.8 2.8v12.2c0 1.5 1.2 2.8 2.8 2.8h38.1c1.5 0 2.8-1.2 2.8-2.8v-12.2c0-1.5-1.2-2.8-2.8-2.8h-9.7"/></g></svg>